<?xml version="1.0" standalone="no"?>
<!DOCTYPE svg PUBLIC "-//W3C//DTD SVG 20010904//EN"
 "http://www.w3.org/TR/2001/REC-SVG-20010904/DTD/svg10.dtd">
<svg version="1.0" xmlns="http://www.w3.org/2000/svg"
 width="576.000000pt" height="960.000000pt" viewBox="0 0 576.000000 960.000000"
 preserveAspectRatio="xMidYMid meet">

<g transform="translate(0.000000,960.000000) scale(0.100000,-0.100000)"
fill="#000000" stroke="none">
<path d="M2340 8085 c-288 -32 -469 -73 -595 -134 -152 -74 -250 -144 -355
-250 -91 -91 -214 -260 -272 -372 -24 -47 -24 -47 -53 -32 -21 11 -52 14 -119
11 -83 -3 -98 -7 -161 -41 -39 -21 -81 -51 -95 -66 -14 -15 -70 -77 -125 -138
-384 -421 -402 -451 -421 -688 -3 -44 -15 -129 -26 -190 -28 -147 -31 -543 -6
-645 9 -36 22 -94 28 -130 17 -94 83 -272 123 -332 81 -120 251 -225 386 -238
62 -6 77 -12 95 -33 30 -37 64 -42 105 -15 19 13 44 29 55 35 28 17 132 16
231 -2 105 -19 144 -19 167 2 10 9 21 14 24 11 3 -3 9 -113 14 -243 6 -131 14
-274 19 -319 6 -44 15 -205 21 -356 16 -411 30 -573 70 -775 29 -152 49 -273
55 -345 3 -36 13 -121 20 -190 8 -69 19 -197 25 -285 14 -219 33 -326 87 -490
82 -250 124 -310 268 -380 134 -66 440 -136 591 -137 83 0 175 17 225 43 54
27 135 121 153 176 9 30 19 126 26 253 10 183 14 212 37 268 26 64 57 92 103
92 36 0 96 -37 142 -89 49 -54 78 -135 97 -266 44 -306 70 -384 146 -437 82
-58 176 -51 490 31 256 68 307 110 395 324 56 137 74 237 66 372 -3 61 -10
292 -15 515 l-10 405 -26 22 c-14 13 -32 23 -40 23 -27 0 -63 -22 -73 -45 -14
-30 -7 -328 15 -675 18 -299 14 -398 -20 -495 -71 -201 -124 -258 -282 -301
-137 -38 -267 -66 -325 -71 -56 -4 -69 -2 -92 16 -33 27 -53 87 -73 219 -8 57
-19 122 -24 145 -5 23 -12 62 -16 86 -35 238 -278 420 -455 340 -58 -26 -87
-53 -115 -109 -41 -81 -54 -149 -65 -350 -6 -107 -13 -205 -16 -217 -6 -30
-59 -90 -98 -110 -50 -27 -236 -26 -371 1 -181 37 -327 94 -388 150 -33 31
-70 111 -126 272 -46 135 -53 180 -75 484 -26 350 -54 562 -120 900 -18 94
-44 437 -57 765 -5 138 -14 284 -19 325 -5 41 -10 131 -10 200 0 69 -5 171 -9
228 -8 87 -13 107 -32 128 -28 30 -82 33 -106 4 -16 -18 -19 -18 -41 -4 -49
32 -331 57 -407 36 -33 -10 -238 9 -293 26 -75 24 -182 109 -218 172 -13 22
-39 86 -58 143 -84 248 -103 504 -61 807 8 58 24 175 35 260 21 152 22 156 65
221 24 37 77 102 117 146 40 44 114 126 165 184 164 187 234 239 320 239 24 0
43 -2 43 -5 0 -31 -92 -153 -139 -184 -67 -44 -81 -62 -81 -101 0 -21 8 -48
19 -61 18 -24 45 -124 37 -138 -3 -4 -10 -39 -16 -77 -15 -98 -34 -129 -111
-179 -37 -24 -78 -58 -92 -76 -66 -88 -114 -291 -103 -435 15 -199 70 -331
190 -457 58 -61 87 -82 161 -117 144 -70 225 -64 285 20 l20 28 93 -62 c196
-132 503 -255 757 -305 282 -55 413 -70 628 -71 116 0 112 4 87 -90 -20 -72
-65 -464 -65 -560 1 -111 18 -268 35 -321 17 -51 50 -87 110 -118 37 -19 55
-21 250 -20 115 0 305 8 420 18 116 10 212 16 214 15 2 -2 -9 -8 -25 -15 -118
-47 -176 -83 -223 -136 -67 -75 -93 -144 -94 -248 0 -61 5 -92 22 -129 27 -61
80 -128 124 -155 19 -11 38 -31 44 -43 26 -58 73 -321 73 -411 0 -65 19 -118
55 -154 32 -32 36 -33 115 -33 74 0 107 6 243 41 126 33 184 187 143 386 -9
44 -16 95 -16 113 0 26 3 31 18 25 57 -22 408 -137 462 -151 38 -10 103 -17
155 -18 79 0 97 3 145 28 68 34 91 55 137 125 76 115 101 298 64 472 -28 128
-64 235 -107 315 -35 64 -34 74 0 74 32 0 83 36 101 71 37 71 22 404 -30 689
-7 41 -16 113 -20 160 -3 47 -16 127 -27 178 -17 77 -26 97 -50 117 -16 14
-42 25 -56 26 -157 2 -622 -4 -712 -11 -63 -5 -169 -9 -234 -9 l-119 -1 114
58 c247 124 472 300 637 496 73 85 149 197 175 256 83 186 102 272 102 460 0
151 -14 247 -56 380 -52 162 -129 326 -214 455 -63 95 -264 295 -345 344 -30
17 -75 45 -100 60 -163 100 -416 217 -598 276 -230 74 -570 127 -822 126 -96
0 -209 2 -250 4 -41 2 -127 -2 -190 -10z m417 -135 c332 0 671 -55 908 -147
126 -49 369 -172 505 -255 140 -87 307 -247 384 -371 88 -141 184 -378 206
-511 19 -112 21 -134 10 -108 -11 26 -49 43 -78 35 -12 -3 -47 -38 -80 -77
-66 -81 -116 -112 -155 -97 -30 12 -67 61 -67 90 0 12 -9 30 -20 41 -49 49
-128 2 -115 -69 10 -55 39 -103 88 -148 50 -46 90 -58 166 -51 55 5 138 61
186 124 16 22 32 41 36 44 3 3 16 21 28 40 l21 35 0 -85 c0 -221 -70 -403
-236 -611 -97 -121 -118 -143 -227 -231 -257 -205 -506 -333 -817 -416 -149
-40 -207 -51 -335 -62 -71 -6 -180 -18 -242 -26 -170 -24 -510 -15 -703 19
-190 34 -253 49 -385 92 -288 95 -520 223 -657 363 -81 81 -162 217 -198 327
-28 90 -33 120 -45 290 -7 104 9 300 29 347 9 21 18 70 20 110 2 40 11 89 19
108 9 19 30 69 48 110 17 41 46 107 64 145 18 39 53 114 78 168 86 183 177
316 303 440 89 86 141 124 264 190 138 73 308 113 605 142 215 20 237 22 257
13 9 -5 70 -8 135 -8z m-1958 -1765 c5 -249 81 -468 221 -642 47 -58 47 -59
30 -81 -25 -30 -59 -28 -130 8 -68 34 -148 112 -189 185 -51 89 -66 156 -66
300 0 160 26 257 84 315 l35 35 7 -30 c4 -16 7 -57 8 -90z m4134 -1222 c9 -54
19 -129 22 -168 4 -38 15 -114 27 -168 16 -80 20 -140 22 -310 l1 -212 -42
-13 c-41 -13 -44 -13 -73 11 -16 14 -39 28 -49 32 -28 9 -80 -21 -87 -50 -10
-41 -33 -43 -544 -55 -223 -5 -445 -14 -495 -19 -150 -17 -218 -20 -515 -27
-373 -9 -357 -15 -380 136 -13 84 -13 246 0 385 9 92 62 390 77 432 5 11 21
15 134 27 l46 5 -4 -42 c-4 -33 -1 -46 15 -60 24 -22 49 -23 174 -7 54 7 113
9 132 6 39 -8 46 -23 46 -108 0 -52 -2 -58 -22 -63 -63 -14 -252 -37 -320 -39
-91 -3 -118 -19 -118 -72 0 -24 8 -38 27 -54 26 -20 35 -21 128 -15 55 4 139
15 186 26 48 10 138 21 200 25 137 8 159 18 159 74 0 43 -26 70 -67 70 -20 0
-23 5 -23 38 0 60 -36 181 -62 209 -12 14 -36 31 -51 38 -54 23 188 44 561 49
183 2 336 7 339 10 4 3 126 6 273 6 l267 0 16 -97z m-32 -1124 c85 -147 122
-333 105 -521 -12 -128 -82 -219 -180 -233 -55 -9 -195 21 -369 79 -145 48
-187 65 -187 77 0 4 9 23 20 41 25 43 50 149 50 217 0 58 -23 158 -47 206 -25
47 -72 102 -130 149 l-52 43 277 8 c152 4 306 11 342 15 119 14 115 16 171
-81z m-816 -102 c104 -92 141 -218 99 -341 -13 -37 -20 -46 -33 -40 -66 28
-111 2 -111 -65 0 -40 0 -40 -53 -51 -31 -7 -100 -11 -167 -8 -101 3 -121 7
-168 31 -127 66 -176 151 -151 264 21 91 86 152 209 193 40 13 81 20 120 18
68 -3 100 17 100 63 l0 28 49 -20 c27 -12 75 -44 106 -72z m-39 -921 c-8 -78
-32 -93 -190 -116 -60 -9 -80 -9 -86 0 -4 6 -10 57 -13 113 -3 56 -13 125 -21
152 -7 28 -16 68 -19 90 l-4 40 101 -3 c55 -2 126 0 156 5 l55 8 13 -120 c7
-66 11 -142 8 -169z"/>
<path d="M2595 7735 c-29 -28 -32 -65 -7 -93 27 -32 195 -92 367 -130 208 -47
281 -62 303 -62 52 0 83 78 44 114 -11 9 -54 23 -98 32 -233 46 -405 94 -491
138 -65 32 -87 33 -118 1z"/>
<path d="M2220 7707 c-9 -7 -26 -27 -38 -44 -32 -45 -121 -111 -223 -167 -72
-39 -101 -48 -185 -61 -78 -11 -103 -19 -116 -36 -25 -30 -22 -61 7 -89 22
-21 30 -22 97 -17 85 7 153 29 263 85 190 95 322 227 295 296 -15 42 -68 59
-100 33z"/>
<path d="M2740 7350 c-29 -29 -26 -74 6 -99 59 -46 125 -6 114 69 -6 49 -82
68 -120 30z"/>
<path d="M2051 7254 c-25 -32 -26 -43 -5 -72 18 -26 75 -30 94 -7 30 37 0 105
-46 105 -12 0 -32 -12 -43 -26z"/>
<path d="M3120 7120 c-160 -8 -302 -27 -520 -70 -80 -16 -174 -31 -210 -34
-118 -12 -223 -27 -355 -53 -71 -14 -150 -30 -175 -34 -25 -5 -97 -14 -160
-19 -226 -20 -260 -32 -315 -104 -54 -71 -74 -222 -35 -264 48 -51 120 -10
120 66 0 49 19 100 46 123 20 18 151 39 241 39 30 0 91 9 136 19 205 47 274
61 307 61 19 0 69 6 110 14 41 8 111 17 155 21 44 4 105 13 136 21 30 7 120
25 200 39 127 23 179 27 449 32 487 8 753 -17 845 -79 83 -57 112 -104 130
-210 10 -63 70 -88 113 -48 18 17 22 32 22 79 0 142 -120 286 -287 345 -76 27
-215 45 -393 50 -367 13 -419 13 -560 6z"/>
<path d="M2655 6755 c-28 -27 -30 -42 -13 -79 13 -30 38 -40 89 -37 58 3 78
-21 89 -109 5 -41 10 -96 10 -122 0 -64 45 -182 75 -198 32 -17 71 -6 92 26
16 25 16 29 -6 93 -16 45 -26 104 -32 190 -7 97 -14 131 -30 157 -44 71 -107
104 -202 104 -38 0 -53 -5 -72 -25z"/>
<path d="M2376 6749 c-52 -41 -19 -129 50 -129 32 0 53 -36 64 -107 34 -231
44 -261 110 -336 50 -56 75 -68 110 -55 55 21 55 75 0 142 -22 26 -44 64 -49
84 -23 86 -31 130 -31 182 0 60 -31 137 -70 179 -28 29 -96 60 -131 61 -15 0
-38 -9 -53 -21z"/>
<path d="M2111 6641 c-24 -24 -28 -68 -8 -95 8 -11 34 -22 67 -27 29 -4 55
-11 59 -14 3 -4 6 -73 6 -153 0 -133 2 -151 23 -194 26 -53 109 -133 159 -154
64 -27 108 -13 126 39 11 29 -19 74 -56 86 -39 13 -91 65 -103 101 -4 14 -7
82 -5 153 2 153 -12 199 -78 242 -57 38 -159 47 -190 16z"/>
<path d="M4260 6193 c-88 -33 -49 -173 65 -235 130 -71 356 9 287 101 -21 28
-47 31 -144 16 -72 -11 -96 -1 -118 49 -10 24 -29 51 -41 60 -25 17 -26 17
-49 9z"/>
<path d="M3046 5635 c-136 -57 -384 -103 -476 -88 -60 9 -81 5 -107 -20 -38
-34 -27 -88 24 -115 70 -38 430 19 623 98 48 20 67 33 74 52 13 36 0 73 -29
86 -34 16 -40 15 -109 -13z"/>
<path d="M3709 4975 c-31 -17 -43 -53 -29 -89 12 -33 39 -46 97 -46 60 0 93
-9 93 -24 0 -13 -63 -140 -112 -225 -55 -95 -55 -155 -1 -180 44 -20 72 4 129
114 116 220 118 225 118 297 1 62 -1 70 -30 98 -22 23 -51 36 -105 50 -88 23
-125 24 -160 5z"/>
<path d="M4193 4837 c-19 -23 -44 -38 -76 -47 -50 -13 -87 -48 -87 -82 0 -10
12 -31 26 -45 26 -26 54 -28 119 -8 19 6 20 2 17 -54 l-4 -60 -26 16 c-15 10
-45 31 -67 49 -22 17 -48 34 -58 37 -55 20 -106 -35 -86 -92 6 -17 14 -31 17
-31 4 0 26 -15 50 -34 l42 -34 -75 1 c-61 1 -79 -2 -102 -19 -33 -25 -41 -66
-18 -100 14 -22 21 -24 103 -24 55 0 94 -5 104 -12 13 -10 17 -35 20 -103 2
-75 7 -95 26 -122 19 -26 30 -33 58 -33 51 0 79 32 68 79 -4 20 -6 70 -5 111
2 64 -2 82 -23 123 l-26 47 40 -6 c28 -5 47 -2 63 9 22 14 25 24 31 129 4 66
15 139 26 176 24 77 25 110 4 140 -13 18 -25 22 -74 22 -54 0 -61 -3 -87 -33z"/>
<path d="M3480 4500 c-23 -23 -27 -82 -7 -98 11 -9 9 -26 -11 -89 -13 -43 -26
-84 -28 -91 -3 -11 -18 -12 -67 -7 -89 10 -93 14 -57 59 46 58 37 113 -23 135
-14 6 -70 13 -125 17 -93 6 -101 5 -121 -15 -27 -27 -28 -81 -2 -105 11 -10
37 -20 59 -23 39 -5 40 -6 31 -38 -16 -57 16 -106 95 -147 28 -14 61 -20 123
-21 79 -2 86 0 106 23 17 19 30 24 55 22 59 -6 90 37 117 159 9 41 21 84 26
97 23 59 5 102 -54 127 -50 21 -93 19 -117 -5z"/>
</g>
</svg>
